<svg xmlns="http://www.w3.org/2000/svg" xmlns:xlink="http://www.w3.org/1999/xlink" width="500" zoomAndPan="magnify" viewBox="0 0 375 374.999991" height="500" preserveAspectRatio="xMidYMid meet" version="1.2"><defs><clipPath id="8f31f30c3f"><path d="M 130 73.738281 L 245 73.738281 L 245 250 L 130 250 Z M 130 73.738281 "/></clipPath><clipPath id="193ae397b0"><path d="M 73.996094 214 L 301.246094 214 L 301.246094 300.988281 L 73.996094 300.988281 Z M 73.996094 214 "/></clipPath></defs><g id="5df080d5d3"><g clip-rule="nonzero" clip-path="url(#8f31f30c3f)"><path style=" stroke:none;fill-rule:evenodd;fill:#000000;fill-opacity:1;" d="M 197.628906 214.742188 L 197.628906 83.746094 C 197.628906 81.097656 196.601562 78.554688 194.707031 76.660156 C 192.8125 74.820312 190.269531 73.738281 187.621094 73.738281 C 184.96875 73.738281 182.425781 74.820312 180.53125 76.660156 C 178.636719 78.554688 177.609375 81.097656 177.609375 83.746094 L 177.609375 214.742188 C 177.609375 214.742188 158.507812 195.640625 147.851562 184.980469 C 145.957031 183.089844 143.414062 182.058594 140.761719 182.058594 C 138.109375 182.058594 135.566406 183.089844 133.675781 184.980469 C 129.777344 188.878906 129.777344 195.207031 133.675781 199.105469 L 180.910156 246.339844 C 182.695312 248.125 185.074219 249.097656 187.621094 249.097656 C 190.164062 249.097656 192.542969 248.125 194.328125 246.339844 L 241.5625 199.105469 C 245.460938 195.207031 245.460938 188.878906 241.5625 184.980469 C 239.671875 183.089844 237.128906 182.058594 234.476562 182.058594 C 231.824219 182.058594 229.28125 183.089844 227.386719 184.980469 C 216.675781 195.640625 197.628906 214.742188 197.628906 214.742188 Z M 197.628906 214.742188 "/></g><g clip-rule="nonzero" clip-path="url(#193ae397b0)"><path style=" stroke:none;fill-rule:evenodd;fill:#000000;fill-opacity:1;" d="M 73.996094 282.050781 C 73.996094 287.082031 75.996094 291.898438 79.566406 295.414062 C 83.136719 298.984375 87.953125 300.988281 92.933594 300.988281 L 282.308594 300.988281 C 287.339844 300.988281 292.152344 298.984375 295.671875 295.414062 C 299.242188 291.84375 301.246094 287.027344 301.246094 282.050781 L 301.246094 224.75 C 301.246094 219.230469 296.753906 214.742188 291.234375 214.742188 C 288.582031 214.742188 286.039062 215.824219 284.144531 217.664062 C 282.253906 219.554688 281.222656 222.097656 281.222656 224.75 L 281.222656 271.554688 C 281.222656 276.800781 277.003906 281.023438 271.753906 281.023438 L 103.484375 281.023438 C 98.234375 281.023438 94.015625 276.800781 94.015625 271.554688 L 94.015625 224.75 C 94.015625 222.097656 92.933594 219.554688 91.09375 217.664062 C 89.199219 215.769531 86.65625 214.742188 84.003906 214.742188 C 78.484375 214.742188 73.996094 219.230469 73.996094 224.75 Z M 73.996094 282.050781 "/></g></g></svg>