<svg xmlns="http://www.w3.org/2000/svg" xmlns:xlink="http://www.w3.org/1999/xlink" width="500" zoomAndPan="magnify" viewBox="0 0 375 374.999991" height="500" preserveAspectRatio="xMidYMid meet" version="1.2"><defs><clipPath id="03051a2c63"><path d="M 130 73.738281 L 245 73.738281 L 245 249 L 130 249 Z M 130 73.738281 "/></clipPath><clipPath id="a55212a228"><path d="M 73.996094 214 L 301 214 L 301 300.988281 L 73.996094 300.988281 Z M 73.996094 214 "/></clipPath></defs><g id="39b060bd31"><g clip-rule="nonzero" clip-path="url(#03051a2c63)"><path style=" stroke:none;fill-rule:evenodd;fill:#ffe400;fill-opacity:1;" d="M 197.496094 214.589844 L 197.496094 83.738281 C 197.496094 81.089844 196.46875 78.546875 194.578125 76.65625 C 192.683594 74.820312 190.144531 73.738281 187.496094 73.738281 C 184.847656 73.738281 182.308594 74.820312 180.414062 76.65625 C 178.523438 78.546875 177.496094 81.089844 177.496094 83.738281 L 177.496094 214.589844 C 177.496094 214.589844 158.417969 195.507812 147.769531 184.859375 C 145.878906 182.96875 143.339844 181.941406 140.691406 181.941406 C 138.042969 181.941406 135.5 182.96875 133.609375 184.859375 C 129.71875 188.753906 129.71875 195.078125 133.609375 198.96875 L 180.792969 246.152344 C 182.578125 247.9375 184.957031 248.910156 187.496094 248.910156 C 190.035156 248.910156 192.414062 247.9375 194.199219 246.152344 L 241.382812 198.96875 C 245.273438 195.078125 245.273438 188.753906 241.382812 184.859375 C 239.492188 182.96875 236.949219 181.941406 234.300781 181.941406 C 231.652344 181.941406 229.113281 182.96875 227.222656 184.859375 C 216.519531 195.507812 197.496094 214.589844 197.496094 214.589844 Z M 197.496094 214.589844 "/></g><g clip-rule="nonzero" clip-path="url(#a55212a228)"><path style=" stroke:none;fill-rule:evenodd;fill:#ffe400;fill-opacity:1;" d="M 73.996094 281.824219 C 73.996094 286.851562 75.992188 291.660156 79.5625 295.175781 C 83.128906 298.742188 87.9375 300.742188 92.910156 300.742188 L 282.082031 300.742188 C 287.109375 300.742188 291.917969 298.742188 295.429688 295.175781 C 299 291.605469 301 286.796875 301 281.824219 L 301 224.585938 C 301 219.074219 296.511719 214.589844 291 214.589844 C 288.351562 214.589844 285.808594 215.667969 283.917969 217.507812 C 282.027344 219.398438 281 221.9375 281 224.585938 L 281 271.339844 C 281 276.582031 276.785156 280.796875 271.542969 280.796875 L 103.449219 280.796875 C 98.207031 280.796875 93.992188 276.582031 93.992188 271.339844 L 93.992188 224.585938 C 93.992188 221.9375 92.910156 219.398438 91.074219 217.507812 C 89.183594 215.613281 86.640625 214.589844 83.992188 214.589844 C 78.480469 214.589844 73.996094 219.074219 73.996094 224.585938 Z M 73.996094 281.824219 "/></g></g></svg>