<svg xmlns="http://www.w3.org/2000/svg" xmlns:xlink="http://www.w3.org/1999/xlink" width="500" zoomAndPan="magnify" viewBox="0 0 375 374.999991" height="500" preserveAspectRatio="xMidYMid meet" version="1.2"><defs><clipPath id="f3772c1d4c"><path d="M 146 204 L 326.480469 204 L 326.480469 300 L 146 300 Z M 146 204 "/></clipPath><clipPath id="1c535e41dd"><path d="M 48.230469 209 L 167 209 L 167 290 L 48.230469 290 Z M 48.230469 209 "/></clipPath></defs><g id="82f5f14900"><g clip-rule="nonzero" clip-path="url(#f3772c1d4c)"><path style=" stroke:none;fill-rule:nonzero;fill:#ffe400;fill-opacity:1;" d="M 236.71875 204.488281 C 212.910156 204.488281 191.167969 213.867188 175.089844 229.070312 C 172.566406 231.4375 170.195312 233.964844 167.980469 236.589844 C 157.828125 248.648438 150.820312 263.386719 148.140625 279.617188 C 147.574219 282.964844 147.214844 286.417969 147.058594 289.921875 C 147.007812 291.367188 146.957031 292.808594 146.957031 294.25 C 146.957031 297.085938 149.273438 299.402344 152.109375 299.402344 L 321.328125 299.402344 C 324.160156 299.402344 326.480469 297.085938 326.480469 294.25 C 326.480469 244.785156 286.234375 204.488281 236.71875 204.488281 Z M 236.71875 204.488281 "/></g><path style=" stroke:none;fill-rule:nonzero;fill:#ffe400;fill-opacity:1;" d="M 123.871094 190.011719 C 146.183594 190.011719 164.320312 171.925781 164.320312 149.613281 C 164.320312 127.300781 146.183594 109.214844 123.871094 109.214844 C 101.558594 109.214844 83.472656 127.351562 83.472656 149.613281 C 83.472656 171.871094 101.613281 190.011719 123.871094 190.011719 Z M 123.871094 190.011719 "/><g clip-rule="nonzero" clip-path="url(#1c535e41dd)"><path style=" stroke:none;fill-rule:nonzero;fill:#ffe400;fill-opacity:1;" d="M 160.097656 229.945312 C 162.3125 227.316406 164.628906 224.84375 167 222.574219 C 154.738281 214.125 139.898438 209.128906 123.871094 209.128906 C 82.1875 209.128906 48.230469 243.03125 48.230469 284.769531 C 48.230469 287.605469 50.546875 289.921875 53.382812 289.921875 L 136.753906 289.921875 L 136.753906 289.5625 C 136.910156 286.160156 137.21875 282.863281 137.734375 279.617188 C 137.785156 279.050781 137.886719 278.484375 137.992188 277.917969 C 140.875 260.398438 148.449219 243.960938 159.839844 230.253906 C 159.941406 230.152344 159.992188 230.046875 160.097656 229.945312 Z M 160.097656 229.945312 "/></g><path style=" stroke:none;fill-rule:nonzero;fill:#ffe400;fill-opacity:1;" d="M 236.71875 189.855469 C 268.5625 189.855469 294.480469 163.9375 294.480469 132.09375 C 294.480469 100.25 268.5625 74.332031 236.71875 74.332031 C 204.875 74.332031 178.953125 100.25 178.953125 132.09375 C 178.953125 163.9375 204.875 189.855469 236.71875 189.855469 Z M 236.71875 189.855469 "/></g></svg>