<svg xmlns="http://www.w3.org/2000/svg" xmlns:xlink="http://www.w3.org/1999/xlink" width="500" zoomAndPan="magnify" viewBox="0 0 375 374.999991" height="500" preserveAspectRatio="xMidYMid meet" version="1.2"><defs><clipPath id="a6a0be03b8"><path d="M 21 20 L 353.953125 20 L 353.953125 356 L 21 356 Z M 21 20 "/></clipPath></defs><g id="6f6674217f"><path style=" stroke:none;fill-rule:evenodd;fill:#262626;fill-opacity:1;" d="M 187.453125 78.25 L 45.703125 132.617188 L 187.453125 187.285156 L 329.199219 132.617188 Z M 187.453125 78.25 "/><path style=" stroke:none;fill-rule:evenodd;fill:#ff0000;fill-opacity:1;" d="M 187.453125 187.289062 L 329.203125 132.921875 C 329.203125 132.921875 343.515625 168.613281 348.953125 182.152344 C 349.496094 183.515625 349.472656 185.023438 348.890625 186.363281 C 348.304688 187.703125 347.210938 188.75 345.847656 189.273438 L 329.203125 195.675781 L 329.203125 292.738281 C 329.203125 294.984375 327.816406 297.015625 325.710938 297.820312 C 305.589844 305.585938 204.769531 344.46875 189.414062 350.386719 C 188.152344 350.878906 186.753906 350.878906 185.492188 350.386719 C 170.136719 344.46875 69.316406 305.585938 49.195312 297.820312 C 47.09375 297.015625 45.707031 294.984375 45.707031 292.738281 L 45.707031 195.675781 L 29.058594 189.273438 C 27.699219 188.75 26.601562 187.703125 26.019531 186.363281 C 25.4375 185.023438 25.414062 183.515625 25.957031 182.152344 C 31.390625 168.613281 45.707031 132.921875 45.707031 132.921875 Z M 187.453125 187.289062 L 187.429688 187.355469 L 187.453125 187.367188 L 187.480469 187.355469 Z M 187.453125 78.253906 L 207.265625 28.726562 C 208.371094 25.957031 211.5 24.59375 214.28125 25.664062 L 345.847656 76.269531 C 347.210938 76.792969 348.304688 77.839844 348.890625 79.179688 C 349.472656 80.519531 349.496094 82.035156 348.953125 83.386719 C 343.515625 96.929688 329.203125 132.617188 329.203125 132.617188 L 187.453125 78.253906 L 45.707031 132.617188 C 45.707031 132.617188 31.390625 96.929688 25.957031 83.386719 C 25.414062 82.035156 25.4375 80.519531 26.019531 79.179688 C 26.601562 77.839844 27.699219 76.792969 29.058594 76.269531 C 51.285156 67.71875 138.679688 34.101562 160.625 25.664062 C 163.410156 24.59375 166.535156 25.957031 167.644531 28.726562 Z M 187.453125 78.253906 "/><g clip-rule="nonzero" clip-path="url(#a6a0be03b8)"><path style=" stroke:none;fill-rule:evenodd;fill:#ffe400;fill-opacity:1;" d="M 41.066406 132.769531 L 21.910156 180.53125 C 20.929688 182.972656 20.972656 185.699219 22.023438 188.109375 C 23.070312 190.515625 25.042969 192.402344 27.496094 193.339844 L 41.34375 198.671875 L 41.34375 292.738281 C 41.34375 296.796875 43.839844 300.425781 47.625 301.886719 C 67.746094 309.652344 168.570312 348.535156 183.921875 354.453125 C 184.679688 354.75 185.460938 354.945312 186.25 355.042969 C 186.632812 355.152344 187.035156 355.207031 187.453125 355.207031 C 187.871094 355.207031 188.273438 355.152344 188.65625 355.042969 C 189.449219 354.945312 190.230469 354.75 190.984375 354.453125 C 206.339844 348.535156 307.160156 309.652344 327.28125 301.886719 C 331.066406 300.425781 333.5625 296.796875 333.5625 292.738281 L 333.5625 198.671875 L 347.414062 193.339844 C 349.867188 192.402344 351.835938 190.515625 352.886719 188.109375 C 353.9375 185.699219 353.976562 182.972656 353 180.53125 L 333.84375 132.769531 L 353 85.011719 C 353.976562 82.570312 353.9375 79.84375 352.886719 77.433594 C 351.835938 75.023438 349.867188 73.136719 347.414062 72.199219 C 340.101562 69.386719 337.726562 68.472656 320.953125 62.015625 C 318.707031 61.15625 316.183594 62.277344 315.320312 64.523438 C 314.453125 66.769531 315.578125 69.300781 317.824219 70.160156 C 334.59375 76.617188 336.96875 77.523438 344.28125 80.335938 C 344.554688 80.445312 344.773438 80.652344 344.890625 80.921875 C 345.007812 81.183594 345.011719 81.492188 344.902344 81.761719 C 344.902344 81.761719 326.753906 127.015625 326.753906 127.015625 L 193.148438 75.765625 C 193.148438 75.765625 211.3125 30.351562 211.3125 30.351562 C 211.535156 29.796875 212.160156 29.523438 212.71875 29.730469 C 212.71875 29.742188 296.015625 61.777344 296.015625 61.777344 C 298.261719 62.636719 300.789062 61.515625 301.652344 59.269531 C 302.515625 57.023438 301.394531 54.492188 299.148438 53.632812 C 269.976562 42.410156 227.574219 26.101562 215.847656 21.597656 C 210.835938 19.667969 205.207031 22.121094 203.214844 27.113281 L 187.453125 66.507812 L 171.695312 27.113281 C 169.699219 22.121094 164.070312 19.667969 159.058594 21.597656 C 137.113281 30.035156 49.71875 63.652344 27.496094 72.199219 C 25.042969 73.136719 23.070312 75.023438 22.023438 77.433594 C 20.972656 79.84375 20.929688 82.570312 21.910156 85.011719 Z M 181.761719 189.777344 L 48.15625 138.527344 C 48.15625 138.527344 30.003906 183.777344 30.003906 183.777344 C 29.894531 184.050781 29.902344 184.355469 30.015625 184.617188 C 30.132812 184.890625 30.351562 185.097656 30.625 185.207031 L 69.078125 199.992188 L 69.105469 200.003906 L 69.144531 200.023438 L 69.183594 200.035156 L 69.21875 200.046875 L 69.261719 200.070312 L 69.296875 200.078125 L 69.335938 200.101562 L 69.371094 200.125 L 69.414062 200.132812 L 69.445312 200.15625 L 69.488281 200.179688 L 69.519531 200.1875 L 69.558594 200.210938 L 69.59375 200.234375 L 69.632812 200.253906 L 69.664062 200.277344 L 69.703125 200.296875 L 69.738281 200.308594 L 69.773438 200.332031 L 69.804688 200.351562 L 69.84375 200.375 L 69.875 200.394531 L 69.945312 200.441406 L 69.980469 200.472656 L 70.011719 200.496094 L 70.046875 200.515625 L 70.078125 200.539062 L 70.113281 200.558594 L 70.15625 200.59375 L 70.199219 200.625 L 70.238281 200.65625 L 70.28125 200.691406 L 70.300781 200.710938 L 70.320312 200.722656 L 70.363281 200.765625 L 70.382812 200.777344 L 70.402344 200.800781 L 70.421875 200.808594 L 70.460938 200.855469 L 70.480469 200.863281 L 70.519531 200.910156 L 70.539062 200.917969 L 70.578125 200.964844 L 70.597656 200.972656 L 70.613281 200.996094 L 70.632812 201.019531 L 70.652344 201.039062 L 70.671875 201.050781 L 70.6875 201.070312 L 70.707031 201.09375 L 70.722656 201.117188 L 70.742188 201.136719 L 70.761719 201.148438 L 70.777344 201.171875 L 70.796875 201.191406 L 70.8125 201.214844 L 70.828125 201.234375 L 70.847656 201.246094 L 70.863281 201.269531 L 70.878906 201.289062 L 70.898438 201.3125 L 70.914062 201.332031 L 70.945312 201.378906 L 70.960938 201.398438 L 70.976562 201.421875 L 70.992188 201.433594 L 71.011719 201.453125 L 71.023438 201.476562 L 71.039062 201.496094 L 71.058594 201.519531 L 71.070312 201.539062 L 71.101562 201.585938 L 71.117188 201.605469 L 71.132812 201.628906 L 71.144531 201.648438 L 71.175781 201.695312 L 71.1875 201.714844 L 71.203125 201.738281 L 71.214844 201.757812 L 71.230469 201.78125 L 71.242188 201.800781 L 71.257812 201.824219 L 71.269531 201.855469 L 71.285156 201.878906 L 71.296875 201.902344 L 71.308594 201.921875 L 71.324219 201.945312 L 71.335938 201.964844 L 71.347656 201.988281 L 71.359375 202.007812 L 71.398438 202.085938 L 71.417969 202.128906 L 71.441406 202.171875 L 71.464844 202.226562 L 71.488281 202.269531 L 71.507812 202.316406 L 71.527344 202.371094 L 71.550781 202.414062 L 71.570312 202.457031 L 71.585938 202.511719 L 71.601562 202.542969 L 71.613281 202.585938 L 71.628906 202.621094 L 71.640625 202.664062 L 71.652344 202.695312 L 71.667969 202.730469 L 71.675781 202.773438 L 71.6875 202.804688 L 71.699219 202.839844 L 71.710938 202.882812 L 71.722656 202.914062 L 71.730469 202.957031 L 71.742188 202.992188 L 71.75 203.035156 L 71.757812 203.066406 L 71.769531 203.109375 L 71.777344 203.144531 L 71.785156 203.1875 L 71.792969 203.21875 L 71.800781 203.261719 L 71.808594 203.296875 L 71.816406 203.339844 L 71.820312 203.382812 L 71.828125 203.425781 L 71.832031 203.460938 L 71.839844 203.503906 L 71.84375 203.535156 L 71.847656 203.578125 L 71.851562 203.613281 L 71.863281 203.742188 L 71.867188 203.777344 L 71.867188 203.820312 L 71.871094 203.851562 L 71.871094 203.894531 L 71.875 203.929688 L 71.875 204.179688 L 71.871094 204.210938 L 71.871094 204.257812 L 71.867188 204.300781 L 71.867188 204.355469 L 71.863281 204.410156 L 71.859375 204.453125 L 71.855469 204.484375 L 71.851562 204.507812 L 71.847656 204.539062 L 71.847656 204.5625 L 71.84375 204.59375 L 71.839844 204.617188 L 71.835938 204.648438 L 71.832031 204.671875 L 71.828125 204.703125 L 71.824219 204.726562 L 71.820312 204.746094 L 71.816406 204.777344 L 71.8125 204.800781 L 71.808594 204.832031 L 71.800781 204.855469 L 71.796875 204.886719 L 71.792969 204.910156 L 71.785156 204.941406 L 71.78125 204.964844 L 71.773438 204.996094 L 71.769531 205.019531 L 71.761719 205.039062 L 71.757812 205.074219 L 71.75 205.09375 L 71.742188 205.128906 L 71.738281 205.148438 L 71.730469 205.183594 L 71.722656 205.203125 L 71.714844 205.238281 L 71.707031 205.257812 L 71.699219 205.292969 L 71.691406 205.3125 L 71.683594 205.335938 L 71.675781 205.367188 L 71.667969 205.390625 L 71.660156 205.421875 L 71.648438 205.445312 L 71.640625 205.476562 L 71.632812 205.5 L 71.621094 205.519531 L 71.613281 205.554688 L 71.605469 205.574219 L 71.59375 205.609375 L 71.582031 205.628906 L 71.574219 205.664062 L 71.558594 205.695312 L 71.542969 205.738281 L 71.527344 205.773438 L 71.507812 205.816406 L 71.492188 205.847656 L 71.476562 205.890625 L 71.457031 205.925781 L 71.441406 205.96875 L 71.425781 205.988281 L 71.414062 206.011719 L 71.402344 206.042969 L 71.390625 206.066406 L 71.378906 206.085938 L 71.363281 206.109375 L 71.351562 206.132812 L 71.339844 206.164062 C 70.308594 208.050781 68.011719 208.933594 65.949219 208.136719 L 50.066406 202.03125 L 50.066406 292.738281 C 50.066406 293.1875 50.34375 293.589844 50.765625 293.753906 L 183.09375 344.78125 L 183.09375 318.132812 C 183.09375 315.726562 185.046875 313.773438 187.453125 313.773438 C 189.863281 313.773438 191.816406 315.726562 191.816406 318.132812 L 191.816406 344.78125 L 324.144531 293.753906 C 324.5625 293.589844 324.839844 293.1875 324.839844 292.738281 C 324.839844 292.738281 324.839844 202.03125 324.839844 202.03125 L 215.847656 243.945312 L 215.789062 243.96875 L 215.730469 243.988281 L 215.671875 244.011719 L 215.613281 244.03125 L 215.496094 244.078125 L 215.4375 244.097656 L 215.375 244.121094 L 215.316406 244.128906 L 215.199219 244.175781 L 215.140625 244.183594 L 215.082031 244.207031 L 215.019531 244.230469 L 214.960938 244.238281 L 214.902344 244.261719 L 214.84375 244.273438 L 214.785156 244.292969 L 214.722656 244.304688 L 214.664062 244.316406 L 214.605469 244.339844 L 214.546875 244.347656 L 214.484375 244.359375 L 214.425781 244.382812 L 214.367188 244.394531 L 214.308594 244.402344 L 214.246094 244.414062 L 214.128906 244.4375 L 214.066406 244.445312 L 213.890625 244.480469 L 213.828125 244.492188 L 213.769531 244.5 L 213.710938 244.5 L 213.648438 244.511719 L 213.53125 244.535156 L 213.46875 244.535156 L 213.410156 244.546875 L 213.351562 244.546875 L 213.292969 244.554688 L 213.230469 244.566406 L 213.113281 244.566406 L 213.050781 244.578125 L 212.992188 244.578125 L 212.933594 244.589844 L 212.8125 244.589844 L 212.753906 244.601562 L 211.921875 244.601562 L 211.863281 244.589844 L 211.6875 244.589844 L 211.625 244.578125 L 211.566406 244.578125 L 211.511719 244.566406 L 211.449219 244.566406 L 211.390625 244.554688 L 211.332031 244.554688 L 211.273438 244.546875 L 211.214844 244.546875 L 211.097656 244.523438 L 211.042969 244.523438 L 210.980469 244.511719 L 210.925781 244.5 L 210.867188 244.492188 L 210.808594 244.480469 L 210.75 244.480469 L 210.632812 244.457031 L 210.578125 244.445312 L 210.519531 244.4375 C 207.332031 243.835938 204.515625 241.675781 203.222656 238.449219 L 203.214844 238.4375 C 203.214844 238.4375 191.816406 209.9375 191.816406 209.9375 L 191.816406 285.421875 C 191.816406 287.832031 189.863281 289.785156 187.453125 289.785156 C 185.046875 289.785156 183.09375 287.832031 183.09375 285.421875 L 183.09375 209.9375 L 171.695312 238.4375 L 171.648438 238.546875 L 171.621094 238.601562 L 171.597656 238.667969 L 171.574219 238.722656 L 171.546875 238.777344 L 171.523438 238.832031 L 171.496094 238.898438 C 169.347656 243.5625 163.925781 245.808594 159.074219 243.957031 L 159.058594 243.945312 C 147.332031 239.441406 116.925781 227.742188 87.753906 216.523438 C 85.78125 215.757812 84.675781 213.71875 85.019531 211.714844 C 85.023438 211.703125 85.023438 211.691406 85.027344 211.679688 L 85.03125 211.660156 C 85.035156 211.625 85.042969 211.605469 85.046875 211.582031 C 85.054688 211.550781 85.058594 211.519531 85.066406 211.484375 L 85.078125 211.441406 C 85.113281 211.289062 85.15625 211.148438 85.210938 210.996094 L 85.222656 210.960938 C 85.226562 210.949219 85.234375 210.929688 85.238281 210.90625 L 85.25 210.886719 C 85.261719 210.851562 85.273438 210.820312 85.289062 210.789062 L 85.300781 210.753906 L 85.3125 210.734375 L 85.324219 210.699219 L 85.335938 210.679688 L 85.347656 210.65625 C 85.351562 210.644531 85.355469 210.632812 85.359375 210.625 C 85.371094 210.601562 85.382812 210.582031 85.394531 210.558594 L 85.40625 210.527344 C 85.414062 210.515625 85.421875 210.492188 85.429688 210.480469 C 85.460938 210.417969 85.488281 210.363281 85.523438 210.308594 L 85.535156 210.285156 C 85.539062 210.273438 85.542969 210.265625 85.550781 210.265625 L 85.5625 210.242188 L 85.578125 210.21875 C 85.589844 210.199219 85.601562 210.175781 85.613281 210.15625 C 85.625 210.132812 85.636719 210.109375 85.648438 210.101562 L 85.664062 210.078125 L 85.675781 210.054688 C 85.691406 210.035156 85.707031 210.011719 85.722656 209.992188 L 85.738281 209.957031 C 85.742188 209.957031 85.75 209.949219 85.753906 209.9375 L 85.777344 209.902344 C 85.796875 209.882812 85.820312 209.847656 85.84375 209.816406 C 85.878906 209.773438 85.917969 209.71875 85.960938 209.675781 C 86.785156 208.671875 88.023438 208.09375 89.3125 208.09375 C 89.835938 208.082031 90.367188 208.179688 90.886719 208.378906 L 162.191406 235.800781 L 162.21875 235.8125 L 162.242188 235.820312 L 162.296875 235.84375 L 162.324219 235.84375 L 162.347656 235.855469 L 162.375 235.855469 L 162.402344 235.867188 L 162.429688 235.867188 L 162.457031 235.875 L 162.496094 235.875 C 162.960938 235.910156 163.414062 235.648438 163.59375 235.191406 Z M 212.71875 235.800781 L 344.28125 185.207031 C 344.554688 185.097656 344.773438 184.890625 344.890625 184.617188 C 345.007812 184.355469 345.011719 184.050781 344.902344 183.777344 C 344.902344 183.777344 326.753906 138.527344 326.753906 138.527344 L 193.148438 189.777344 L 211.3125 235.191406 L 211.324219 235.222656 L 211.335938 235.246094 L 211.347656 235.265625 L 211.359375 235.296875 C 211.613281 235.777344 212.195312 236.007812 212.71875 235.800781 Z M 187.453125 82.917969 L 317.050781 132.628906 C 317.050781 132.628906 187.453125 182.613281 187.453125 182.613281 L 57.855469 132.628906 Z M 181.761719 75.765625 L 48.15625 127.015625 L 30.003906 81.761719 C 29.894531 81.492188 29.902344 81.183594 30.015625 80.921875 C 30.132812 80.652344 30.351562 80.445312 30.625 80.335938 C 30.625 80.335938 162.191406 29.742188 162.191406 29.742188 C 162.75 29.523438 163.375 29.796875 163.59375 30.351562 Z M 181.761719 75.765625 "/></g></g></svg>