<svg xmlns="http://www.w3.org/2000/svg" xmlns:xlink="http://www.w3.org/1999/xlink" width="500" zoomAndPan="magnify" viewBox="0 0 375 374.999991" height="500" preserveAspectRatio="xMidYMid meet" version="1.2"><defs><clipPath id="8716f0fee3"><path d="M 73.222656 74 L 301.972656 74 L 301.972656 301 L 73.222656 301 Z M 73.222656 74 "/></clipPath></defs><g id="b9cd02b3c7"><g clip-rule="nonzero" clip-path="url(#8716f0fee3)"><path style=" stroke:none;fill-rule:evenodd;fill:#ff0000;fill-opacity:1;" d="M 73.222656 271.410156 C 73.222656 281.289062 78.3125 290.476562 86.699219 295.714844 C 95.085938 300.933594 105.582031 301.472656 114.453125 297.128906 C 120.472656 294.167969 250.996094 230.238281 285.777344 213.203125 C 295.578125 208.410156 301.804688 198.421875 301.804688 187.5 C 301.804688 176.578125 295.578125 166.585938 285.777344 161.796875 C 238.992188 138.871094 157.039062 98.742188 114.453125 77.867188 C 105.582031 73.527344 95.085938 74.066406 86.699219 79.285156 C 78.3125 84.523438 73.222656 93.710938 73.222656 103.589844 C 73.222656 136.484375 73.222656 189.847656 73.222656 232.957031 C 73.222656 238.234375 77.492188 242.5 82.765625 242.5 C 88.042969 242.5 92.308594 238.234375 92.308594 232.957031 C 92.308594 189.847656 92.308594 136.484375 92.308594 103.589844 C 92.308594 100.289062 94.003906 97.234375 96.800781 95.480469 C 99.597656 93.75 103.101562 93.5625 106.046875 95.015625 C 148.652344 115.890625 230.605469 156.019531 277.371094 178.925781 C 280.648438 180.527344 282.71875 183.863281 282.71875 187.5 C 282.71875 191.132812 280.648438 194.46875 277.371094 196.074219 C 242.609375 213.089844 112.085938 277.039062 106.046875 279.984375 C 103.101562 281.4375 99.597656 281.25 96.800781 279.515625 C 94.003906 277.765625 92.308594 274.707031 92.308594 271.410156 C 92.308594 266.152344 88.042969 261.867188 82.765625 261.867188 C 77.492188 261.867188 73.222656 266.152344 73.222656 271.410156 "/></g></g></svg>